# Blender v2.93.18 OBJ File: ''
# www.blender.org
mtllib stone.mtl
o Cube
v 2.082107 1.716385 -1.612762
v 1.893333 -1.196780 -1.566837
v 1.865189 1.924736 1.605856
v 1.248097 -1.704679 2.123994
v -1.822460 1.263873 -2.204317
v -1.458784 -2.319293 -1.592754
v -1.506369 1.246627 2.239245
v -2.213594 -1.543382 1.324572
v -2.166290 -2.280159 -0.178523
v 0.018732 -2.179047 -2.098160
v 2.384519 0.592857 -1.845992
v -2.197082 -0.161276 2.132319
v 2.070623 0.177724 2.501099
v -2.210990 -0.923666 -2.542500
v -0.028915 2.041281 2.320446
v 2.372086 2.138410 -0.295309
v -0.658758 -2.074981 2.230126
v -2.246205 1.751108 0.325424
v 0.700874 1.873671 -2.255963
v 2.091176 -1.921113 0.345942
v -0.030122 2.490083 -0.171290
v -0.070934 -0.039612 2.975810
v -2.835905 -0.296989 -0.420082
v -0.035825 -2.700826 0.121444
v 2.789906 0.253373 0.393431
v -0.005147 -0.164644 -2.883528
v 1.076611 2.487918 -0.965583
v -0.994768 -0.889054 2.828782
v -2.752950 -1.236454 -1.265110
v -0.968992 -2.675727 0.882786
v 2.651273 -0.618523 1.285567
v -0.926726 -1.153431 -2.910224
v -0.967119 2.422675 0.834138
v 0.805586 0.907035 2.983099
v -2.778725 0.550220 0.680886
v 0.845345 -2.587711 -0.679917
v 2.903856 1.063778 -0.524731
v 1.090595 0.779845 -2.682604
vt 0.067815 0.118944
vt 0.180005 0.324696
vt 0.090995 0.384213
vt 0.000210 0.311503
vt 0.245279 0.478566
vt 0.096969 0.478566
vt 0.004511 0.416961
vt 0.110708 0.484144
vt 0.174576 0.597737
vt 0.082527 0.635502
vt 0.015072 0.593813
vt 0.215814 0.754882
vt 0.093097 0.758383
vt 0.000210 0.739810
vt 0.904150 0.309524
vt 0.743962 0.243493
vt 0.769083 0.197918
vt 0.892036 0.229159
vt 0.023470 0.019264
vt 0.126499 0.000210
vt 0.203075 0.040968
vt 0.870687 0.112370
vt 0.726207 0.096085
vt 0.618792 0.401923
vt 0.532903 0.524561
vt 0.454630 0.471029
vt 0.497725 0.376414
vt 0.399948 0.678192
vt 0.353255 0.532577
vt 0.374255 0.418394
vt 0.784898 0.386603
vt 0.838825 0.520978
vt 0.757878 0.577365
vt 0.688841 0.508537
vt 0.953047 0.657804
vt 0.801479 0.692509
vt 0.553812 0.702535
vt 0.476706 0.793402
vt 0.360766 0.793402
vt 0.691271 0.073673
vt 0.598149 0.158964
vt 0.530845 0.076590
vt 0.542887 0.000210
vt 0.475842 0.316383
vt 0.427998 0.151320
vt 0.777786 0.004363
vt 0.904150 0.000210
vt 0.268949 0.159399
vt 0.278330 0.279531
vt 0.324489 0.681159
vt 0.324489 0.799605
vt 0.233759 0.877207
vt 0.352834 0.365953
vt 0.269934 0.478986
vt 0.272387 0.570389
vt 0.976858 0.766110
vt 0.865794 0.774007
vt 0.128891 0.862986
vt 0.073299 0.872994
vt 0.292717 0.094323
vt 0.688420 0.503559
vt 0.610614 0.577254
vt 0.366579 0.375993
vt 0.353255 0.245882
vt 0.916146 0.376414
vt 0.916111 0.462609
vt 0.999790 0.417234
vt 0.999790 0.509196
vt 0.725786 0.261211
vt 0.656370 0.258206
vt 0.689325 0.375993
vt 0.612537 0.372108
vn -0.2334 0.9072 -0.3501
vn 0.1513 0.9743 0.1670
vn 0.3645 0.8297 -0.4228
vn 0.1497 -0.3779 0.9137
vn -0.3719 0.1632 0.9138
vn -0.5930 -0.4423 0.6729
vn -0.9409 -0.2981 0.1606
vn -0.9175 0.2160 -0.3339
vn -0.6496 -0.6647 -0.3691
vn -0.1783 -0.9783 -0.1056
vn 0.2140 -0.9174 0.3355
vn -0.5357 -0.7444 0.3987
vn 0.9362 -0.2967 -0.1886
vn 0.9155 0.2425 0.3211
vn 0.6965 -0.5107 0.5040
vn -0.2162 0.1990 -0.9558
vn 0.4021 -0.3284 -0.8547
vn -0.2419 -0.6761 -0.6960
vn -0.3556 0.9022 -0.2440
vn -0.4934 0.7509 0.4391
vn 0.1238 0.9766 0.1758
vn 0.2343 -0.2677 0.9346
vn 0.4206 0.5443 0.7258
vn -0.2530 0.2953 0.9213
vn -0.9518 -0.1807 0.2478
vn -0.7872 0.4128 0.4583
vn -0.9138 0.3425 -0.2182
vn -0.0225 -0.9731 -0.2293
vn 0.5785 -0.7014 -0.4165
vn 0.3109 -0.9184 0.2446
vn 0.9247 -0.3142 -0.2150
vn 0.8310 0.3973 -0.3893
vn 0.8975 0.3126 0.3112
vn -0.1005 0.3244 -0.9406
vn 0.4842 0.3850 -0.7857
vn 0.4569 -0.2893 -0.8412
usemtl Material
s off
f 5/1/1 21/2/1 27/3/1 19/4/1
f 3/5/2 16/6/2 27/3/2 21/2/2
f 1/7/3 19/4/3 27/3/3 16/6/3
f 4/8/4 22/9/4 28/10/4 17/11/4
f 7/12/5 12/13/5 28/10/5 22/9/5
f 8/14/6 17/11/6 28/10/6 12/13/6
f 8/15/7 23/16/7 29/17/7 9/18/7
f 5/1/8 14/19/8 29/20/8 23/21/8
f 6/22/9 9/18/9 29/17/9 14/23/9
f 6/24/10 24/25/10 30/26/10 9/27/10
f 4/28/11 17/29/11 30/26/11 24/25/11
f 8/30/12 9/27/12 30/26/12 17/29/12
f 2/31/13 25/32/13 31/33/13 20/34/13
f 3/35/14 13/36/14 31/33/14 25/32/14
f 4/28/15 20/37/15 31/38/15 13/39/15
f 5/40/16 26/41/16 32/42/16 14/43/16
f 2/44/17 10/45/17 32/42/17 26/41/17
f 6/22/18 14/23/18 32/46/18 10/47/18
f 5/1/19 18/48/19 33/49/19 21/2/19
f 7/12/20 15/50/20 33/51/20 18/52/20
f 3/5/21 21/2/21 33/49/21 15/53/21
f 4/8/22 13/54/22 34/55/22 22/9/22
f 3/35/23 15/56/23 34/57/23 13/36/23
f 7/12/24 22/9/24 34/55/24 15/50/24
f 8/14/25 12/13/25 35/58/25 23/59/25
f 7/12/26 18/52/26 35/58/26 12/13/26
f 5/1/27 23/21/27 35/60/27 18/48/27
f 6/24/28 10/61/28 36/62/28 24/25/28
f 2/44/29 20/63/29 36/64/29 10/45/29
f 4/28/30 24/25/30 36/62/30 20/37/30
f 2/31/31 11/65/31 37/66/31 25/32/31
f 1/67/32 16/68/32 37/66/32 11/65/32
f 3/35/33 25/32/33 37/66/33 16/68/33
f 5/40/34 19/69/34 38/70/34 26/41/34
f 1/71/35 11/72/35 38/70/35 19/69/35
f 2/44/36 26/41/36 38/70/36 11/72/36
